<?xml version="1.0" encoding="utf-8"?>
<!-- Generator: Adobe Illustrator 22.0.0, SVG Export Plug-In . SVG Version: 6.00 Build 0)  -->
<svg version="1.1" id="Capa_1" xmlns="http://www.w3.org/2000/svg" xmlns:xlink="http://www.w3.org/1999/xlink" x="0px" y="0px"
	 viewBox="0 0 612 792" style="enable-background:new 0 0 612 792;" xml:space="preserve">
<style type="text/css">
	.st0{fill:#6CB530;}
	.st1{font-family:'TwCenMT-Condensed';}
	.st2{font-size:77.3279px;}
	.st3{fill:#4C8122;}
	.st4{fill:#FFFFFF;}
	.st5{fill:none;stroke:#FFFFFF;stroke-miterlimit:10;}
</style>
<path class="st0" d="M317.2,442.2h-72.8c-10.2,0-18.4-8.2-18.4-18.4l-14.4-116.1h133.9l-9.9,116.1
	C335.6,433.9,327.4,442.2,317.2,442.2z"/>
<g>
	<text transform="matrix(1 0 0 1 93.9492 500.2725)" class="st1 st2">sentinela</text>
	<text transform="matrix(1 0 0 1 310.2031 500.2725)" class="st0 st1 st2">garbage</text>
</g>
<g>
	<path class="st3" d="M224.9,375.3c0,0,43.9,25.4,97.9-6.9c72.3-43.1,113.1-11.5,120.4-2.6c-47.9-4.8-59.7,29.1-90.7,44.8
		C326.7,423.7,290.7,419.2,224.9,375.3z"/>
	<ellipse class="st4" cx="324.9" cy="361" rx="39.1" ry="33.9"/>
	<path class="st0" d="M421.8,343.8c0,0-38-25-94.3,12s-95.4,14.1-102.6,5.2c-1.3-1.2,52.2-40.2,72.9-47.4
		C315.4,307.5,362.9,295.4,421.8,343.8z"/>
	<ellipse class="st0" cx="324.9" cy="361" rx="21.9" ry="19"/>
</g>
<path class="st0" d="M216.3,303.6c-2.8-0.1-5-2.7-5-6c-0.1-3.4,2.3-6.4,5.2-6.5l123-5.4c2.9-0.1,5.4,2.6,5.5,6
	c0.1,3.4-2.3,6.4-5.2,6.5l-123,5.4C216.6,303.6,216.4,303.6,216.3,303.6z"/>
<path class="st0" d="M271.5,286.3c-2.8-0.1-5-2.7-5-6c-0.1-3.4,2.3-6.4,5.2-6.5l18.8-0.8c2.9-0.1,5.4,2.6,5.5,6
	c0.1,3.4-2.3,6.4-5.2,6.5l-18.8,0.8C271.8,286.3,271.7,286.3,271.5,286.3z"/>
<g>
	<path class="st4" d="M442.9,366.2c-0.3-0.4-0.8-0.6-1.3-0.9l-1.4-0.7c-0.9-0.5-1.8-0.9-2.8-1.4c-1.9-0.9-3.8-1.7-5.7-2.5
		c-3.8-1.5-7.8-2.8-11.8-3.8c-8-2.1-16.2-3.1-24.4-3c-4.1,0.1-8.2,0.5-12.3,1.1c-4,0.7-8,1.7-11.9,2.9c-7.8,2.6-15.1,6.3-21.9,10.9
		l-1.4-2.1c7-4.6,14.7-8.3,22.7-10.8c4-1.2,8.1-2.1,12.3-2.8c4.2-0.6,8.3-0.9,12.5-0.9c8.4,0.1,16.7,1.3,24.8,3.5
		c4,1.1,8,2.5,11.8,4.1c1.9,0.8,3.8,1.7,5.7,2.6c0.9,0.5,1.9,0.9,2.8,1.4l1.4,0.8c0.5,0.3,0.9,0.6,1.4,0.7L442.9,366.2z"/>
</g>
<path class="st5" d="M252.7,372.7"/>
<path class="st5" d="M414.5,338.8"/>
</svg>
